<svg xmlns="http://www.w3.org/2000/svg">

  <symbol id="emoji" viewBox="0 0 13 12">
    <path fill-rule="evenodd" clip-rule="evenodd" d="M1.17056 5.77411C1.17056 4.52986 1.70497 3.33656 2.65624 2.45675C3.6075 1.57692 4.89769 1.08265 6.24298 1.08265C7.58827 1.08265 8.87846 1.57692 9.82973 2.45675C10.781 3.33656 11.3154 4.52986 11.3154 5.77411C11.3154 7.01837 10.781 8.21165 9.82973 9.09149C8.87846 9.97132 7.58827 10.4656 6.24298 10.4656C4.89769 10.4656 3.6075 9.97132 2.65624 9.09149C1.70497 8.21165 1.17056 7.01837 1.17056 5.77411ZM6.24298 0C4.58724 0 2.99932 0.608342 1.82853 1.6912C0.657741 2.77406 0 4.24272 0 5.77411C0 7.30548 0.657741 8.7742 1.82853 9.85706C2.99932 10.9399 4.58724 11.5482 6.24298 11.5482C7.8987 11.5482 9.48668 10.9399 10.6575 9.85706C11.8282 8.7742 12.486 7.30548 12.486 5.77411C12.486 4.24272 11.8282 2.77406 10.6575 1.6912C9.48668 0.608342 7.8987 0 6.24298 0ZM3.90186 5.77411C4.10883 5.77411 4.30732 5.69807 4.45367 5.56272C4.60002 5.42736 4.68224 5.24377 4.68224 5.05235C4.68224 4.86092 4.60002 4.67734 4.45367 4.54198C4.30732 4.40663 4.10883 4.33058 3.90186 4.33058C3.69489 4.33058 3.49641 4.40663 3.35005 4.54198C3.20371 4.67734 3.12149 4.86092 3.12149 5.05235C3.12149 5.24377 3.20371 5.42736 3.35005 5.56272C3.49641 5.69807 3.69489 5.77411 3.90186 5.77411ZM9.36447 5.05235C9.36447 5.24377 9.28222 5.42736 9.1359 5.56272C8.98958 5.69807 8.79105 5.77411 8.5841 5.77411C8.37714 5.77411 8.17862 5.69807 8.0323 5.56272C7.88598 5.42736 7.80373 5.24377 7.80373 5.05235C7.80373 4.86092 7.88598 4.67734 8.0323 4.54198C8.17862 4.40663 8.37714 4.33058 8.5841 4.33058C8.79105 4.33058 8.98958 4.40663 9.1359 4.54198C9.28222 4.67734 9.36447 4.86092 9.36447 5.05235ZM4.15158 6.95492C4.27749 6.87338 4.43302 6.84092 4.58458 6.86456C4.73614 6.88819 4.87157 6.96602 4.96161 7.08123L4.96707 7.08772C5.04733 7.17286 5.13914 7.24803 5.2402 7.31147C5.44622 7.43994 5.7732 7.57852 6.24298 7.57852C6.71277 7.57852 7.03896 7.43994 7.24576 7.31075C7.34683 7.24731 7.43863 7.17213 7.51889 7.087L7.52435 7.08123C7.61439 6.96427 7.75097 6.88517 7.90401 6.86136C8.05711 6.83753 8.2142 6.87093 8.34062 6.9542C8.46704 7.03747 8.55257 7.16379 8.57833 7.30534C8.60408 7.44695 8.56802 7.59224 8.47797 7.70916L7.99882 7.39808C8.47797 7.70844 8.47797 7.70916 8.47719 7.70916V7.70988L8.47641 7.71133L8.47485 7.71349L8.47095 7.71855L8.46002 7.73226C8.41616 7.78661 8.36817 7.83792 8.31643 7.88599C8.19103 8.0061 8.05243 8.11371 7.90283 8.20718C7.41137 8.50917 6.833 8.66738 6.24298 8.66117C5.50475 8.66117 4.95381 8.43887 4.58391 8.20646C4.38818 8.08397 4.21148 7.93731 4.05872 7.77051C4.04756 7.75795 4.03663 7.74518 4.02594 7.73226L4.01502 7.71782L4.01112 7.71349L4.00956 7.71133V7.70988H4.00877L4.48714 7.39808L4.00799 7.70844C3.919 7.59094 3.88406 7.44565 3.91083 7.30432C3.93761 7.16307 4.02391 7.03739 4.1508 6.95492H4.15158Z"/>
  </symbol>

  <symbol id="close" viewBox="0 0 10 10">
    <path d="M5.00032 3.98148L8.5653 0.416504L9.58366 1.43486L6.01868 4.99984L9.58366 8.56481L8.5653 9.58317L5.00032 6.01819L1.43535 9.58317L0.416992 8.56481L3.98197 4.99984L0.416992 1.43486L1.43535 0.416504L5.00032 3.98148Z"/>
  </symbol>

  <symbol id="sent" viewBox="0 0 13 10">
    <path d="M1.20791 1.15669L1.82374 4.43176H5.62351C5.94675 4.43176 6.20879 4.67411 6.20879 4.97308C6.20879 5.27205 5.94675 5.51441 5.62351 5.51441H1.82374L1.20791 8.78945L10.8359 4.97308L1.20791 1.15669ZM0.737393 4.97308L0.0154916 1.1339C-0.0428683 0.823532 0.0657142 0.506309 0.30656 0.283551C0.609177 0.00366537 1.06555 -0.0776269 1.45891 0.0782958L11.9178 4.22401C12.2417 4.35243 12.4518 4.64707 12.4518 4.97308C12.4518 5.29909 12.2417 5.59374 11.9178 5.72216L1.45891 9.86784C1.06555 10.0238 0.609177 9.94247 0.30656 9.66264C0.0657142 9.43984 -0.0428684 9.12262 0.0154916 8.81226L0.737393 4.97308Z"/>
  </symbol>

</svg>