<svg width="90" height="26" viewBox="0 0 90 26" fill="none" xmlns="http://www.w3.org/2000/svg">
<path fill-rule="evenodd" clip-rule="evenodd" d="M23.3244 12.7843V25.1673H25.166H27.0076V12.7843V0.401367H25.166H23.3244V12.7843ZM74.8082 0.563317C74.7181 0.652183 74.6444 6.22452 74.6444 12.9463V25.1673H76.6088H78.5732L78.5786 20.1291C78.585 14.2169 78.7869 13.4246 80.5094 12.5559C81.7485 11.9306 83.6404 11.8966 84.3763 12.4862C85.4739 13.3654 85.5604 13.85 85.6527 19.6435L85.7409 25.1673H87.5592H89.3775V19.4893C89.3775 13.0954 89.1898 12.0491 87.7438 10.3786C86.1003 8.48016 83.2178 7.74131 80.7832 8.59452C80.0404 8.8548 79.2392 9.15078 79.0029 9.25251C78.6025 9.42442 78.5732 9.13038 78.5732 4.91921V0.401367H76.7726C75.7821 0.401367 74.8981 0.474208 74.8082 0.563317ZM9.57354 1.40147C7.63688 1.70983 4.96456 3.0858 3.5109 4.52319C1.21009 6.79826 -0.00538418 9.86486 1.79288e-05 13.3816C0.00517449 16.9343 1.16049 19.795 3.54061 22.1497C5.81957 24.4042 8.29471 25.3953 11.6607 25.4014C14.6896 25.4067 17.8771 24.1643 19.7811 22.2362L20.7262 21.2793L19.3948 19.9463L18.0637 18.6135L17.1949 19.4498C14.1786 22.3527 9.16347 22.3653 6.24289 19.4774C4.5594 17.8128 3.84853 16.0236 3.82471 13.3913C3.80482 11.1643 4.29052 9.59899 5.49372 8.01203C8.23283 4.39936 13.6114 4.02278 17.2576 7.1882L18.0841 7.90593L19.4152 6.5625L20.7461 5.21907L19.6411 4.25805C18.1315 2.94522 15.425 1.67608 13.5023 1.37962C11.6973 1.10113 11.4513 1.10258 9.57354 1.40147ZM49.7905 5.80374L49.7211 8.53527L48.3091 8.60811L46.8972 8.68095V10.3563V12.0316L48.3091 12.1045L49.7211 12.1773L49.7864 18.6723L49.8519 25.1673H51.6894H53.5271V18.6116V12.0559H55.1232H56.7192V10.368V8.67974L55.1845 8.60763L53.6499 8.53527L53.5804 5.80374L53.5109 3.0722H51.6855H49.86L49.7905 5.80374ZM63.8402 8.50468C61.2401 9.21245 59.452 10.6015 58.264 12.8368C57.6447 14.002 57.5819 14.3536 57.5804 16.6692C57.5789 18.9214 57.6545 19.3784 58.2289 20.59C59.0554 22.333 60.4305 23.6927 62.2701 24.586C63.5581 25.2112 63.9743 25.2887 66.0502 25.2887C68.0954 25.2887 68.569 25.2037 69.8933 24.5986C70.7242 24.2189 71.7098 23.5927 72.0838 23.2067C72.7581 22.5108 72.7598 22.5003 72.2923 21.9883C72.0327 21.7042 71.4147 21.1535 70.9189 20.7645L70.017 20.0575L69.1048 20.6696C65.7869 22.8961 61.7646 21.1766 61.2273 17.3019C60.9449 15.2633 62.2716 13.0852 64.2694 12.3077C65.6182 11.783 67.8373 12.0817 69.0938 12.9574L70.1678 13.706L71.4645 12.408C72.9391 10.9313 72.93 10.8771 71.0012 9.65338C68.916 8.3301 66.1255 7.88262 63.8402 8.50468ZM30.491 14.5447C30.5637 20.0912 30.601 20.503 31.1339 21.6466C31.818 23.1151 32.6948 24.0662 34.0058 24.7618C35.4393 25.5223 38.7341 25.5079 40.206 24.7346C41.2338 24.1946 41.2496 24.1936 41.2496 24.6768C41.2496 25.128 41.4067 25.1673 43.214 25.1673H45.1784V16.912V8.65667H43.214H41.2496L41.2491 13.6948C41.2488 18.0068 41.1869 18.8549 40.8194 19.578C39.9661 21.2574 37.6903 22.1301 35.9926 21.4286C34.5146 20.8182 34.3741 20.1736 34.3741 14.0061V8.65667H32.394H30.4137L30.491 14.5447Z" fill="#17313B"/>
<ellipse cx="65.9466" cy="16.9136" rx="2.94661" ry="2.91364" fill="#FF0000"/>
</svg>
