<svg width="95" height="26" viewBox="0 0 95 26" fill="none" xmlns="http://www.w3.org/2000/svg">
<path d="M36.024 16.528H39.784V18H34.2V6.88H36.024V16.528ZM41.5974 8.016C41.2667 8.016 40.9894 7.904 40.7654 7.68C40.5414 7.456 40.4294 7.17867 40.4294 6.848C40.4294 6.51733 40.5414 6.24 40.7654 6.016C40.9894 5.792 41.2667 5.68 41.5974 5.68C41.9174 5.68 42.1894 5.792 42.4134 6.016C42.6374 6.24 42.7494 6.51733 42.7494 6.848C42.7494 7.17867 42.6374 7.456 42.4134 7.68C42.1894 7.904 41.9174 8.016 41.5974 8.016ZM42.4934 9.184V18H40.6694V9.184H42.4934ZM48.6961 9.04C49.3895 9.04 50.0081 9.184 50.5521 9.472C51.1068 9.76 51.5388 10.1867 51.8481 10.752C52.1575 11.3173 52.3121 12 52.3121 12.8V18H50.5041V13.072C50.5041 12.2827 50.3068 11.68 49.9121 11.264C49.5175 10.8373 48.9788 10.624 48.2961 10.624C47.6135 10.624 47.0695 10.8373 46.6641 11.264C46.2695 11.68 46.0721 12.2827 46.0721 13.072V18H44.2481V9.184H46.0721V10.192C46.3708 9.82933 46.7495 9.54667 47.2081 9.344C47.6775 9.14133 48.1735 9.04 48.6961 9.04ZM57.4868 13.6L61.5508 18H59.0868L55.8228 14.208V18H53.9987V6.16H55.8228V13.04L59.0228 9.184H61.5508L57.4868 13.6ZM70.2981 13.376C70.2981 13.7067 70.2768 14.0053 70.2341 14.272H63.4981C63.5515 14.976 63.8128 15.5413 64.2821 15.968C64.7515 16.3947 65.3275 16.608 66.0101 16.608C66.9915 16.608 67.6848 16.1973 68.0901 15.376H70.0581C69.7915 16.1867 69.3061 16.8533 68.6021 17.376C67.9088 17.888 67.0448 18.144 66.0101 18.144C65.1675 18.144 64.4101 17.9573 63.7381 17.584C63.0768 17.2 62.5541 16.6667 62.1701 15.984C61.7968 15.2907 61.6101 14.4907 61.6101 13.584C61.6101 12.6773 61.7915 11.8827 62.1541 11.2C62.5275 10.5067 63.0448 9.97333 63.7061 9.6C64.3781 9.22667 65.1461 9.04 66.0101 9.04C66.8421 9.04 67.5835 9.22133 68.2341 9.584C68.8848 9.94667 69.3915 10.4587 69.7541 11.12C70.1168 11.7707 70.2981 12.5227 70.2981 13.376ZM68.3941 12.8C68.3835 12.128 68.1435 11.5893 67.6741 11.184C67.2048 10.7787 66.6235 10.576 65.9301 10.576C65.3008 10.576 64.7621 10.7787 64.3141 11.184C63.8661 11.5787 63.5995 12.1173 63.5141 12.8H68.3941ZM70.8451 13.552C70.8451 12.6667 71.0265 11.8827 71.3891 11.2C71.7625 10.5173 72.2638 9.98933 72.8931 9.616C73.5331 9.232 74.2425 9.04 75.0211 9.04C75.5971 9.04 76.1625 9.168 76.7171 9.424C77.2825 9.66933 77.7305 10 78.0611 10.416V6.16H79.9011V18H78.0611V16.672C77.7625 17.0987 77.3465 17.4507 76.8131 17.728C76.2905 18.0053 75.6878 18.144 75.0051 18.144C74.2371 18.144 73.5331 17.952 72.8931 17.568C72.2638 17.1733 71.7625 16.6293 71.3891 15.936C71.0265 15.232 70.8451 14.4373 70.8451 13.552ZM78.0611 13.584C78.0611 12.976 77.9331 12.448 77.6771 12C77.4318 11.552 77.1065 11.2107 76.7011 10.976C76.2958 10.7413 75.8585 10.624 75.3891 10.624C74.9198 10.624 74.4825 10.7413 74.0771 10.976C73.6718 11.2 73.3411 11.536 73.0851 11.984C72.8398 12.4213 72.7171 12.944 72.7171 13.552C72.7171 14.16 72.8398 14.6933 73.0851 15.152C73.3411 15.6107 73.6718 15.9627 74.0771 16.208C74.4931 16.4427 74.9305 16.56 75.3891 16.56C75.8585 16.56 76.2958 16.4427 76.7011 16.208C77.1065 15.9733 77.4318 15.632 77.6771 15.184C77.9331 14.7253 78.0611 14.192 78.0611 13.584ZM82.5849 8.016C82.2542 8.016 81.9769 7.904 81.7529 7.68C81.5289 7.456 81.4169 7.17867 81.4169 6.848C81.4169 6.51733 81.5289 6.24 81.7529 6.016C81.9769 5.792 82.2542 5.68 82.5849 5.68C82.9049 5.68 83.1769 5.792 83.4009 6.016C83.6249 6.24 83.7369 6.51733 83.7369 6.848C83.7369 7.17867 83.6249 7.456 83.4009 7.68C83.1769 7.904 82.9049 8.016 82.5849 8.016ZM83.4809 9.184V18H81.6569V9.184H83.4809ZM89.6836 9.04C90.377 9.04 90.9956 9.184 91.5396 9.472C92.0943 9.76 92.5263 10.1867 92.8356 10.752C93.145 11.3173 93.2996 12 93.2996 12.8V18H91.4916V13.072C91.4916 12.2827 91.2943 11.68 90.8996 11.264C90.505 10.8373 89.9663 10.624 89.2836 10.624C88.601 10.624 88.057 10.8373 87.6516 11.264C87.257 11.68 87.0596 12.2827 87.0596 13.072V18H85.2356V9.184H87.0596V10.192C87.3583 9.82933 87.737 9.54667 88.1956 9.344C88.665 9.14133 89.161 9.04 89.6836 9.04Z" fill="#737373"/>
<path d="M0 2.19223C0 1.20368 0.822312 0.401367 1.83611 0.401367H23.0064C24.0206 0.401367 24.8426 1.20368 24.8426 2.19223V23.6108C24.8426 24.5997 24.0206 25.4014 23.0064 25.4014H1.83611C0.822312 25.4014 0 24.5997 0 23.6112V2.19223Z" fill="#0A66C2"/>
<path d="M7.53021 20.9271V9.63813H3.77796V20.9271H7.53054H7.53021ZM5.65474 8.09709C6.96298 8.09709 7.77743 7.23017 7.77743 6.14685C7.75284 5.03894 6.96298 4.19629 5.67966 4.19629C4.39535 4.19629 3.55664 5.03894 3.55664 6.14685C3.55664 7.23017 4.37076 8.09709 5.63015 8.09709H5.65441H5.65474ZM9.607 20.9271H13.3589V14.6236C13.3589 14.2865 13.3835 13.9488 13.4825 13.7081C13.7537 13.0337 14.3711 12.3356 15.4078 12.3356C16.7653 12.3356 17.3086 13.3707 17.3086 14.8885V20.9271H21.0605V14.4544C21.0605 10.987 19.2096 9.37353 16.741 9.37353C14.717 9.37353 13.8281 10.5047 13.3343 11.2752H13.3592V9.63846H9.60732C9.65618 10.6975 9.607 20.9274 9.607 20.9274V20.9271Z" fill="white"/>
</svg>
