<svg width="493" height="91" viewBox="0 0 493 91" fill="none" xmlns="http://www.w3.org/2000/svg">
<path d="M1.32409 78.8309C0.507294 77.6874 0.139736 76.2172 0.221415 74.4202C0.303095 72.6232 1.36493 71.0713 3.40692 69.7645C4.71379 68.9477 6.10234 68.621 7.57257 68.7843C9.04281 68.866 10.4722 69.6011 11.8608 70.9897C14.2295 73.3584 16.7207 75.1962 19.3344 76.503C21.9482 77.8099 25.2154 78.4633 29.136 78.4633C30.3612 78.3817 31.7089 78.2183 33.1791 77.9733C34.6493 77.6465 35.9154 76.9931 36.9772 76.013C38.1207 74.9511 38.6925 73.3584 38.6925 71.2347C38.6925 69.4377 38.0799 68.0084 36.8547 66.9465C35.6295 65.8847 33.9959 64.9862 31.9539 64.2511C29.9936 63.516 27.7883 62.8217 25.3379 62.1683C22.8058 61.4332 20.1921 60.6164 17.4966 59.7179C14.8829 58.8194 12.4733 57.6759 10.268 56.2873C8.06265 54.8171 6.2657 52.8976 4.87715 50.5289C3.4886 48.1602 2.79432 45.1789 2.79432 41.585C2.79432 37.501 3.93784 34.0297 6.22486 31.1709C8.51189 28.3121 11.4524 26.1067 15.0463 24.5548C18.7218 23.0029 22.5608 22.227 26.5631 22.227C29.0951 22.227 31.7497 22.5537 34.5268 23.2071C37.3039 23.7789 39.9585 24.759 42.4906 26.1476C45.0227 27.4545 47.1463 29.2106 48.8616 31.4159C49.7601 32.6411 50.291 34.1113 50.4543 35.8266C50.6177 37.5419 49.8417 39.0938 48.1265 40.4823C46.9013 41.4625 45.4719 41.9117 43.8383 41.8301C42.2047 41.6667 40.857 41.0949 39.7952 40.1148C38.4066 38.3178 36.528 36.8884 34.1593 35.8266C31.8722 34.7648 29.2177 34.2339 26.1955 34.2339C24.9703 34.2339 23.6226 34.3972 22.1524 34.7239C20.7638 34.969 19.5386 35.5816 18.4768 36.5617C17.415 37.4602 16.884 38.9304 16.884 40.9724C16.884 42.8511 17.4966 44.3621 18.7218 45.5056C19.947 46.5675 21.5806 47.4659 23.6226 48.2011C25.7463 48.8545 27.9925 49.5079 30.3612 50.1614C32.8116 50.8148 35.3028 51.5908 37.8349 52.4892C40.3669 53.3877 42.6948 54.5721 44.8185 56.0423C46.9421 57.5125 48.6574 59.432 49.9643 61.8007C51.2711 64.0877 51.9246 67.0282 51.9246 70.6221C51.9246 74.7878 50.6994 78.3408 48.249 81.2813C45.7986 84.2217 42.7356 86.4679 39.06 88.0198C35.3845 89.4901 31.6272 90.2252 27.7883 90.2252C22.9692 90.2252 18.1501 89.4084 13.331 87.7748C8.51189 86.0595 4.50959 83.0782 1.32409 78.8309ZM98.6561 22.227C105.19 22.227 110.01 23.8197 113.113 27.0052C116.217 30.109 118.259 34.1522 119.239 39.1346L117.157 38.032L118.137 36.0717C119.117 34.193 120.628 32.1919 122.67 30.0682C124.712 27.8629 127.162 26.0251 130.021 24.5548C132.962 23.0029 136.229 22.227 139.823 22.227C145.704 22.227 150.155 23.493 153.177 26.0251C156.281 28.5571 158.405 31.9468 159.548 36.1942C160.692 40.3598 161.264 45.0156 161.264 50.1614V81.5263C161.264 83.65 160.569 85.4469 159.181 86.9172C157.792 88.3057 156.036 89 153.912 89C151.789 89 150.033 88.3057 148.644 86.9172C147.255 85.4469 146.561 83.65 146.561 81.5263V50.1614C146.561 47.4659 146.234 45.0564 145.581 42.9327C144.928 40.7274 143.743 38.9713 142.028 37.6644C140.313 36.3575 137.862 35.7041 134.677 35.7041C131.573 35.7041 128.918 36.3575 126.713 37.6644C124.508 38.9713 122.833 40.7274 121.69 42.9327C120.628 45.0564 120.097 47.4659 120.097 50.1614V81.5263C120.097 83.65 119.403 85.4469 118.014 86.9172C116.626 88.3057 114.87 89 112.746 89C110.622 89 108.866 88.3057 107.478 86.9172C106.089 85.4469 105.395 83.65 105.395 81.5263V50.1614C105.395 47.4659 105.068 45.0564 104.415 42.9327C103.761 40.7274 102.577 38.9713 100.861 37.6644C99.1462 36.3575 96.6958 35.7041 93.5103 35.7041C90.4065 35.7041 87.7519 36.3575 85.5466 37.6644C83.3412 38.9713 81.6668 40.7274 80.5233 42.9327C79.4614 45.0564 78.9305 47.4659 78.9305 50.1614V81.5263C78.9305 83.65 78.2362 85.4469 76.8477 86.9172C75.4591 88.3057 73.703 89 71.5794 89C69.4557 89 67.6996 88.3057 66.311 86.9172C64.9225 85.4469 64.2282 83.65 64.2282 81.5263V30.9258C64.2282 28.8022 64.9225 27.0461 66.311 25.6575C67.6996 24.1873 69.4557 23.4522 71.5794 23.4522C73.703 23.4522 75.4591 24.1873 76.8477 25.6575C78.2362 27.0461 78.9305 28.8022 78.9305 30.9258V36.1942L77.0927 35.8266C77.8278 34.4381 78.8488 32.9678 80.1557 31.4159C81.4626 29.7823 83.0553 28.2713 84.934 26.8827C86.8126 25.4941 88.8954 24.3915 91.1824 23.5747C93.4695 22.6762 95.9607 22.227 98.6561 22.227ZM230.839 22.227C232.963 22.227 234.719 22.9212 236.107 24.3098C237.496 25.6983 238.19 27.4953 238.19 29.7006V81.5263C238.19 83.65 237.496 85.4469 236.107 86.9172C234.719 88.3057 232.963 89 230.839 89C228.715 89 226.959 88.3057 225.571 86.9172C224.182 85.4469 223.488 83.65 223.488 81.5263V75.5229L226.183 76.6255C226.183 77.6874 225.612 78.9943 224.468 80.5462C223.325 82.0164 221.773 83.4866 219.812 84.9569C217.852 86.4271 215.524 87.6931 212.829 88.755C210.215 89.7351 207.356 90.2252 204.252 90.2252C198.617 90.2252 193.512 88.7958 188.938 85.937C184.363 82.9966 180.729 78.9943 178.033 73.9301C175.42 68.7843 174.113 62.9034 174.113 56.2873C174.113 49.5896 175.42 43.7087 178.033 38.6446C180.729 33.4987 184.323 29.4964 188.815 26.6377C193.307 23.6972 198.29 22.227 203.762 22.227C207.275 22.227 210.501 22.7579 213.441 23.8197C216.382 24.8815 218.914 26.2293 221.038 27.8629C223.243 29.4964 224.917 31.1709 226.061 32.8861C227.286 34.5197 227.899 35.9083 227.899 37.0518L223.488 38.6446V29.7006C223.488 27.577 224.182 25.8209 225.571 24.4323C226.959 22.9621 228.715 22.227 230.839 22.227ZM206.09 76.7481C209.684 76.7481 212.829 75.8496 215.524 74.0526C218.22 72.2557 220.302 69.8053 221.773 66.7015C223.325 63.5977 224.101 60.1263 224.101 56.2873C224.101 52.3667 223.325 48.8545 221.773 45.7507C220.302 42.6469 218.22 40.1965 215.524 38.3995C212.829 36.6026 209.684 35.7041 206.09 35.7041C202.578 35.7041 199.474 36.6026 196.779 38.3995C194.083 40.1965 191.96 42.6469 190.408 45.7507C188.938 48.8545 188.202 52.3667 188.202 56.2873C188.202 60.1263 188.938 63.5977 190.408 66.7015C191.96 69.8053 194.083 72.2557 196.779 74.0526C199.474 75.8496 202.578 76.7481 206.09 76.7481ZM261.46 89C259.337 89 257.581 88.3057 256.192 86.9172C254.803 85.4469 254.109 83.65 254.109 81.5263V30.9258C254.109 28.8022 254.803 27.0461 256.192 25.6575C257.581 24.1873 259.337 23.4522 261.46 23.4522C263.584 23.4522 265.34 24.1873 266.729 25.6575C268.117 27.0461 268.812 28.8022 268.812 30.9258V42.4427L267.954 34.2339C268.852 32.2736 269.996 30.5583 271.384 29.088C272.855 27.5361 274.488 26.2701 276.285 25.2899C278.082 24.2281 280.002 23.4522 282.044 22.9621C284.086 22.472 286.128 22.227 288.17 22.227C290.62 22.227 292.662 22.9212 294.296 24.3098C296.011 25.6983 296.868 27.3319 296.868 29.2106C296.868 31.906 296.174 33.8663 294.786 35.0915C293.397 36.235 291.886 36.8068 290.252 36.8068C288.701 36.8068 287.271 36.5209 285.964 35.9491C284.739 35.3774 283.31 35.0915 281.676 35.0915C280.206 35.0915 278.695 35.4591 277.143 36.1942C275.673 36.8476 274.284 37.9094 272.977 39.3797C271.752 40.8499 270.731 42.6877 269.914 44.893C269.179 47.0167 268.812 49.5488 268.812 52.4892V81.5263C268.812 83.65 268.117 85.4469 266.729 86.9172C265.34 88.3057 263.584 89 261.46 89ZM307.968 24.6773H337.005C338.965 24.6773 340.599 25.3308 341.906 26.6377C343.213 27.9445 343.866 29.5781 343.866 31.5384C343.866 33.4171 343.213 35.0098 341.906 36.3167C340.599 37.5419 338.965 38.1545 337.005 38.1545H307.968C306.008 38.1545 304.374 37.501 303.067 36.1942C301.76 34.8873 301.107 33.2537 301.107 31.2934C301.107 29.4148 301.76 27.8629 303.067 26.6377C304.374 25.3308 306.008 24.6773 307.968 24.6773ZM321.078 9.36243C323.201 9.36243 324.916 10.0976 326.223 11.5678C327.612 12.9563 328.306 14.7124 328.306 16.8361V71.3572C328.306 72.5007 328.51 73.44 328.919 74.1752C329.409 74.9103 330.021 75.4412 330.757 75.7679C331.573 76.0946 332.431 76.258 333.329 76.258C334.31 76.258 335.208 76.0946 336.025 75.7679C336.842 75.3595 337.781 75.1553 338.843 75.1553C339.986 75.1553 341.007 75.6862 341.906 76.7481C342.886 77.8099 343.376 79.2801 343.376 81.1588C343.376 83.4458 342.11 85.3244 339.578 86.7947C337.128 88.2649 334.473 89 331.614 89C329.899 89 327.979 88.8775 325.856 88.6324C323.814 88.3057 321.854 87.6114 319.975 86.5496C318.178 85.4061 316.667 83.6908 315.442 81.4038C314.216 79.1168 313.604 75.9721 313.604 71.9698V16.8361C313.604 14.7124 314.298 12.9563 315.687 11.5678C317.157 10.0976 318.954 9.36243 321.078 9.36243ZM363.001 58.7377C360.877 58.7377 359.081 58.0434 357.61 56.6549C356.222 55.2663 355.527 53.5102 355.527 51.3866C355.527 49.2629 356.222 47.5476 357.61 46.2408C359.081 44.8522 360.877 44.1579 363.001 44.1579H384.32C386.443 44.1579 388.199 44.893 389.588 46.3633C391.058 47.7518 391.793 49.5079 391.793 51.6316C391.793 53.6736 391.058 55.3889 389.588 56.7774C388.199 58.0843 386.443 58.7377 384.32 58.7377H363.001ZM454.582 23.4522C456.706 23.4522 458.462 24.1873 459.851 25.6575C461.239 27.0461 461.934 28.8022 461.934 30.9258V62.0457C461.934 70.7038 459.524 77.5649 454.705 82.629C449.886 87.6931 442.943 90.2252 433.877 90.2252C424.81 90.2252 417.867 87.6931 413.048 82.629C408.311 77.5649 405.942 70.7038 405.942 62.0457V30.9258C405.942 28.8022 406.637 27.0461 408.025 25.6575C409.414 24.1873 411.17 23.4522 413.293 23.4522C415.417 23.4522 417.173 24.1873 418.562 25.6575C419.95 27.0461 420.645 28.8022 420.645 30.9258V62.0457C420.645 67.0282 421.747 70.7446 423.953 73.195C426.158 75.5637 429.466 76.7481 433.877 76.7481C438.369 76.7481 441.718 75.5637 443.923 73.195C446.129 70.7446 447.231 67.0282 447.231 62.0457V30.9258C447.231 28.8022 447.926 27.0461 449.314 25.6575C450.703 24.1873 452.459 23.4522 454.582 23.4522ZM491.695 81.5263C491.695 83.65 491.001 85.4469 489.612 86.9172C488.224 88.3057 486.468 89 484.344 89C482.22 89 480.464 88.3057 479.076 86.9172C477.687 85.4469 476.993 83.65 476.993 81.5263V30.9258C476.993 28.8022 477.687 27.0461 479.076 25.6575C480.464 24.1873 482.22 23.4522 484.344 23.4522C486.468 23.4522 488.224 24.1873 489.612 25.6575C491.001 27.0461 491.695 28.8022 491.695 30.9258V81.5263ZM484.222 15.4884C481.444 15.4884 479.484 15.0392 478.341 14.1407C477.197 13.2422 476.625 11.6495 476.625 9.36243V7.03457C476.625 4.66586 477.238 3.07311 478.463 2.25632C479.77 1.35784 481.73 0.9086 484.344 0.9086C487.203 0.9086 489.204 1.35784 490.348 2.25632C491.491 3.15479 492.063 4.74754 492.063 7.03457V9.36243C492.063 11.7311 491.45 13.3647 490.225 14.2632C489 15.08 486.999 15.4884 484.222 15.4884Z" fill="url(#paint0_linear_1033_4619)"/>
<defs>
<linearGradient id="paint0_linear_1033_4619" x1="190.143" y1="-16" x2="247.866" y2="110.838" gradientUnits="userSpaceOnUse">
<stop stop-color="#28B674"/>
<stop offset="1" stop-color="#8CC641"/>
</linearGradient>
</defs>
</svg>
