<svg width="16" height="11" viewBox="0 0 16 11" fill="none" xmlns="http://www.w3.org/2000/svg">
<path fill-rule="evenodd" clip-rule="evenodd" d="M13.8242 2.5889L8.21021 6.92731C8.10748 7.00635 7.98341 7.04587 7.85934 7.04587C7.73471 7.04587 7.61064 7.00635 7.5079 6.92731L1.89386 2.5889C1.6519 2.40214 1.61316 2.06108 1.80685 1.82776C2.00109 1.59498 2.35478 1.55762 2.59618 1.74385L7.85934 5.81104L13.1219 1.74385C13.3639 1.55708 13.717 1.59444 13.9113 1.82776C14.105 2.06108 14.0662 2.40214 13.8242 2.5889ZM14.5965 0H1.12281C0.502456 0 0 0.484511 0 1.08271V9.20301C0 9.80066 0.502456 10.2857 1.12281 10.2857H14.5965C15.2163 10.2857 15.7193 9.80066 15.7193 9.20301V1.08271C15.7193 0.484511 15.2163 0 14.5965 0Z" fill="#27B674"/>
</svg>
