<svg width="16" height="16" viewBox="0 0 16 16" fill="none" xmlns="http://www.w3.org/2000/svg">
<path fill-rule="evenodd" clip-rule="evenodd" d="M7.07179 8.60472C4.34076 5.87369 4.73083 5.48362 4.73083 5.48362L5.90158 4.31341C6.33248 3.88252 6.33248 3.18348 5.90158 2.75314L3.474 0.324999C3.06296 -0.085484 2.4031 -0.111967 1.96834 0.273137C1.25276 0.906516 0.287791 1.95203 0.0494466 3.14321C-0.340622 5.09355 1.61027 7.82458 4.73083 10.9457C7.85193 14.0662 10.583 16.0171 12.5333 15.6271C13.7245 15.3887 14.77 14.4238 15.4034 13.7082C15.7885 13.2734 15.762 12.6136 15.3515 12.2025L12.9234 9.77493C12.493 9.34403 11.794 9.34403 11.3631 9.77493L10.1929 10.9457C10.1929 10.9457 9.80283 11.3358 7.07179 8.60472Z" fill="#27B674"/>
</svg>
