<svg width="13" height="10" viewBox="0 0 13 10" fill="none" xmlns="http://www.w3.org/2000/svg">
<path fill-rule="evenodd" clip-rule="evenodd" d="M1.20791 1.15669L1.82374 4.43176H5.62351C5.94675 4.43176 6.20879 4.67411 6.20879 4.97308C6.20879 5.27205 5.94675 5.51441 5.62351 5.51441H1.82374L1.20791 8.78945L10.8359 4.97308L1.20791 1.15669ZM0.737393 4.97308L0.0154916 1.1339C-0.0428683 0.823532 0.0657142 0.506309 0.30656 0.283551C0.609177 0.00366537 1.06555 -0.0776269 1.45891 0.0782958L11.9178 4.22401C12.2417 4.35243 12.4518 4.64707 12.4518 4.97308C12.4518 5.29909 12.2417 5.59374 11.9178 5.72216L1.45891 9.86784C1.06555 10.0238 0.609177 9.94247 0.30656 9.66264C0.0657142 9.43984 -0.0428684 9.12262 0.0154916 8.81226L0.737393 4.97308Z" fill="#8E8E93"/>
</svg>
