<svg viewBox="0 0 28.001 28" xmlns="http://www.w3.org/2000/svg" xmlns:xlink="http://www.w3.org/1999/xlink" width="28.000977" height="28.000000" fill="none" customFrame="#000000">
	<path id="Vector" d="M2.54558 14C2.54558 12.4958 2.84187 11.0063 3.41755 9.61654C3.99322 8.22681 4.83699 6.96407 5.9007 5.90041C6.9644 4.83676 8.2272 3.99302 9.617 3.41738C11.0068 2.84173 12.4964 2.54545 14.0007 2.54545C15.505 2.54545 16.9946 2.84173 18.3844 3.41738C19.7742 3.99302 21.037 4.83676 22.1007 5.90041C23.1644 6.96407 24.0081 8.22681 24.5838 9.61654C25.1595 11.0063 25.4558 12.4958 25.4558 14C25.4558 17.0379 24.2489 19.9514 22.1007 22.0996C19.9524 24.2477 17.0388 25.4545 14.0007 25.4545C10.9626 25.4545 8.04895 24.2477 5.9007 22.0996C3.75245 19.9514 2.54558 17.0379 2.54558 14ZM14.0007 0C6.26849 0 0 6.26818 0 14C0 21.7318 6.26849 28 14.0007 28C21.7329 28 28.0014 21.7318 28.0014 14C28.0014 6.26818 21.7329 0 14.0007 0ZM20.1101 9.67273C20.2104 9.53902 20.2833 9.38687 20.3248 9.22496C20.3663 9.06305 20.3755 8.89456 20.3518 8.7291C20.3282 8.56364 20.2722 8.40446 20.187 8.26064C20.1019 8.11683 19.9892 7.99119 19.8555 7.89091C19.7218 7.79063 19.5696 7.71766 19.4077 7.67618C19.2458 7.6347 19.0773 7.62552 18.9118 7.64915C18.7464 7.67279 18.5872 7.72879 18.4434 7.81394C18.2995 7.8991 18.1739 8.01174 18.0736 8.14545L11.3176 17.1538L8.53659 14.3729C8.29654 14.1411 7.97503 14.0128 7.64131 14.0157C7.30759 14.0186 6.98836 14.1524 6.75238 14.3884C6.51639 14.6244 6.38253 14.9436 6.37963 15.2773C6.37673 15.611 6.50502 15.9325 6.73687 16.1725L10.5552 19.9907C10.6842 20.1196 10.8393 20.2194 11.0101 20.2831C11.181 20.3469 11.3635 20.3732 11.5454 20.3603C11.7272 20.3474 11.9042 20.2955 12.0643 20.2083C12.2244 20.121 12.3639 20.0004 12.4733 19.8545L20.1101 9.67273Z" fill="rgb(19.0654,204,0)" fill-rule="evenodd" />
</svg>
