<svg width="34" height="33" viewBox="0 0 34 33" fill="none" xmlns="http://www.w3.org/2000/svg">
<path d="M17.0625 33C26.1752 33 33.5625 25.6127 33.5625 16.5C33.5625 7.3873 26.1752 0 17.0625 0C7.9498 0 0.5625 7.3873 0.5625 16.5C0.5625 25.6127 7.9498 33 17.0625 33Z" fill="url(#paint0_linear_282_3648)"/>
<path fill-rule="evenodd" clip-rule="evenodd" d="M8.03164 16.3259C12.8417 14.2302 16.0492 12.8487 17.6541 12.1811C22.2363 10.2752 23.1884 9.94415 23.809 9.93322C23.9455 9.93082 24.2507 9.96464 24.4484 10.1251C24.6153 10.2605 24.6613 10.4435 24.6833 10.5719C24.7052 10.7003 24.7326 10.9929 24.7108 11.2214C24.4625 13.8305 23.3881 20.1619 22.8415 23.0841C22.6102 24.3206 22.1547 24.7352 21.7138 24.7757C20.7557 24.8639 20.0281 24.1425 19.1 23.5341C17.6478 22.5822 16.8274 21.9896 15.4178 21.0607C13.7887 19.9872 14.8447 19.3971 15.7731 18.4329C16.0161 18.1805 20.2379 14.3405 20.3196 13.9921C20.3298 13.9485 20.3393 13.7861 20.2428 13.7004C20.1464 13.6146 20.004 13.644 19.9012 13.6673C19.7556 13.7003 17.4356 15.2337 12.9414 18.2674C12.2829 18.7196 11.6865 18.9399 11.1521 18.9284C10.5629 18.9157 9.42967 18.5953 8.5872 18.3214C7.55389 17.9856 6.73263 17.808 6.80415 17.2375C6.84139 16.9404 7.25056 16.6365 8.03164 16.3259Z" fill="white"/>
<defs>
<linearGradient id="paint0_linear_282_3648" x1="17.0625" y1="0" x2="17.0625" y2="32.7553" gradientUnits="userSpaceOnUse">
<stop stop-color="#2AABEE"/>
<stop offset="1" stop-color="#229ED9"/>
</linearGradient>
</defs>
</svg>
