<svg width="90" height="25" viewBox="0 0 90 25" fill="none" xmlns="http://www.w3.org/2000/svg">
<path d="M35.008 6.88V13.968C35.008 14.8107 35.2267 15.4453 35.664 15.872C36.112 16.2987 36.7307 16.512 37.52 16.512C38.32 16.512 38.9387 16.2987 39.376 15.872C39.824 15.4453 40.048 14.8107 40.048 13.968V6.88H41.872V13.936C41.872 14.8427 41.6747 15.6107 41.28 16.24C40.8853 16.8693 40.3573 17.3387 39.696 17.648C39.0347 17.9573 38.304 18.112 37.504 18.112C36.704 18.112 35.9733 17.9573 35.312 17.648C34.6613 17.3387 34.144 16.8693 33.76 16.24C33.376 15.6107 33.184 14.8427 33.184 13.936V6.88H35.008ZM45.4309 10.48C45.7402 10.0747 46.1615 9.73333 46.6949 9.456C47.2282 9.17867 47.8309 9.04 48.5029 9.04C49.2709 9.04 49.9695 9.232 50.5989 9.616C51.2389 9.98933 51.7402 10.5173 52.1029 11.2C52.4655 11.8827 52.6469 12.6667 52.6469 13.552C52.6469 14.4373 52.4655 15.232 52.1029 15.936C51.7402 16.6293 51.2389 17.1733 50.5989 17.568C49.9695 17.952 49.2709 18.144 48.5029 18.144C47.8309 18.144 47.2335 18.0107 46.7109 17.744C46.1882 17.4667 45.7615 17.1253 45.4309 16.72V22.192H43.6069V9.184H45.4309V10.48ZM50.7909 13.552C50.7909 12.944 50.6629 12.4213 50.4069 11.984C50.1615 11.536 49.8309 11.2 49.4149 10.976C49.0095 10.7413 48.5722 10.624 48.1029 10.624C47.6442 10.624 47.2069 10.7413 46.7909 10.976C46.3855 11.2107 46.0549 11.552 45.7989 12C45.5535 12.448 45.4309 12.976 45.4309 13.584C45.4309 14.192 45.5535 14.7253 45.7989 15.184C46.0549 15.632 46.3855 15.9733 46.7909 16.208C47.2069 16.4427 47.6442 16.56 48.1029 16.56C48.5722 16.56 49.0095 16.4427 49.4149 16.208C49.8309 15.9627 50.1615 15.6107 50.4069 15.152C50.6629 14.6933 50.7909 14.16 50.7909 13.552ZM65.6506 9.184L62.9146 18H60.9946L59.2186 11.488L57.4426 18H55.5226L52.7706 9.184H54.6266L56.4666 16.272L58.3386 9.184H60.2426L62.0346 16.24L63.8586 9.184H65.6506ZM70.1978 18.144C69.3658 18.144 68.6138 17.9573 67.9418 17.584C67.2698 17.2 66.7418 16.6667 66.3578 15.984C65.9738 15.2907 65.7818 14.4907 65.7818 13.584C65.7818 12.688 65.9791 11.8933 66.3738 11.2C66.7684 10.5067 67.3071 9.97333 67.9898 9.6C68.6724 9.22667 69.4351 9.04 70.2778 9.04C71.1204 9.04 71.8831 9.22667 72.5658 9.6C73.2484 9.97333 73.7871 10.5067 74.1818 11.2C74.5764 11.8933 74.7738 12.688 74.7738 13.584C74.7738 14.48 74.5711 15.2747 74.1658 15.968C73.7604 16.6613 73.2058 17.2 72.5018 17.584C71.8084 17.9573 71.0404 18.144 70.1978 18.144ZM70.1978 16.56C70.6671 16.56 71.1044 16.448 71.5098 16.224C71.9258 16 72.2618 15.664 72.5178 15.216C72.7738 14.768 72.9018 14.224 72.9018 13.584C72.9018 12.944 72.7791 12.4053 72.5338 11.968C72.2884 11.52 71.9631 11.184 71.5578 10.96C71.1524 10.736 70.7151 10.624 70.2458 10.624C69.7764 10.624 69.3391 10.736 68.9338 10.96C68.5391 11.184 68.2244 11.52 67.9898 11.968C67.7551 12.4053 67.6378 12.944 67.6378 13.584C67.6378 14.5333 67.8778 15.2693 68.3578 15.792C68.8484 16.304 69.4618 16.56 70.1978 16.56ZM77.7609 10.464C78.0275 10.016 78.3795 9.66933 78.8169 9.424C79.2649 9.168 79.7929 9.04 80.4009 9.04V10.928H79.9369C79.2222 10.928 78.6782 11.1093 78.3049 11.472C77.9422 11.8347 77.7609 12.464 77.7609 13.36V18H75.9369V9.184H77.7609V10.464ZM84.9255 13.6L88.9895 18H86.5255L83.2615 14.208V18H81.4375V6.16H83.2615V13.04L86.4615 9.184H88.9895L84.9255 13.6Z" fill="#737373"/>
<g clip-path="url(#clip0_468_4433)">
<path d="M23.154 0H1.847C0.827 0 0 0.802 0 1.791V23.208C0 24.198 0.827 25 1.847 25H23.154C24.174 25 25 24.197 25 23.208V1.791C25 0.802 24.174 0 23.154 0V0Z" fill="#1C4253"/>
<path d="M18.3457 14.5372C17.3617 14.5372 16.4407 14.1202 15.6027 13.4412L15.8067 12.4832L15.8157 12.4482C15.9977 11.4282 16.5737 9.7152 18.3457 9.7152C19.6747 9.7152 20.7557 10.7982 20.7557 12.1282C20.7517 13.4542 19.6707 14.5372 18.3457 14.5372ZM18.3457 7.2702C16.0817 7.2702 14.3267 8.7432 13.6137 11.1652C12.5237 9.5282 11.6997 7.5632 11.2167 5.9082H8.78067V12.2562C8.78067 13.5072 7.76167 14.5272 6.51167 14.5272C5.26167 14.5272 4.24367 13.5072 4.24367 12.2562V5.9082H1.80667V12.2562C1.79767 14.8562 3.91167 16.9902 6.50767 16.9902C9.10367 16.9902 11.2177 14.8562 11.2177 12.2562V11.1912C11.6917 12.1802 12.2717 13.1782 12.9767 14.0662L11.4837 21.0932H13.9787L15.0597 15.9962C16.0077 16.6042 17.0977 16.9852 18.3477 16.9852C21.0197 16.9852 23.1947 14.7932 23.1947 12.1182C23.1927 9.4482 21.0177 7.2702 18.3457 7.2702Z" fill="#6FDA44"/>
</g>
<defs>
<clipPath id="clip0_468_4433">
<rect width="25" height="25" fill="white"/>
</clipPath>
</defs>
</svg>
