<svg width="33" height="35" viewBox="0 0 33 35" fill="none" xmlns="http://www.w3.org/2000/svg">
<path d="M11.5393 9.79562C11.8318 9.80759 12.1553 9.82129 12.4628 10.5046C12.6728 10.9718 13.0263 11.8427 13.3081 12.5367C13.5156 13.0482 13.6843 13.4636 13.7278 13.5506C13.8304 13.7558 13.8987 13.9955 13.762 14.2695C13.7415 14.3104 13.7225 14.3491 13.7044 14.386C13.6016 14.5959 13.5261 14.75 13.352 14.9538C13.2838 15.0334 13.2132 15.1192 13.1427 15.205C13.0011 15.3773 12.8594 15.5497 12.7364 15.6724C12.5305 15.877 12.3168 16.0993 12.5561 16.5097C12.7956 16.9205 13.6192 18.2637 14.8391 19.3513C16.1496 20.5198 17.2881 21.014 17.8662 21.265C17.9797 21.3143 18.0717 21.3542 18.139 21.388C18.5495 21.5932 18.7888 21.559 19.0282 21.2848C19.2677 21.0111 20.0536 20.087 20.3273 19.6766C20.6008 19.2658 20.8745 19.3343 21.2506 19.471C21.6269 19.6078 23.6443 20.6007 24.0547 20.8059C24.1347 20.8459 24.2095 20.882 24.2789 20.9155C24.5653 21.0537 24.7587 21.1471 24.8413 21.2848C24.9439 21.4564 24.9439 22.2776 24.6019 23.2357C24.2599 24.194 22.5845 25.118 21.8321 25.1865C21.7597 25.193 21.6877 25.2015 21.6137 25.2102C20.9183 25.292 20.0407 25.3952 16.9078 24.1598C13.0529 22.6396 10.5111 18.8723 9.986 18.094C9.94294 18.0302 9.91344 17.9865 9.89789 17.9658L9.89332 17.9596C9.67204 17.6639 8.22228 15.7264 8.22228 13.7217C8.22228 11.8319 9.1512 10.8413 9.5786 10.3855C9.60781 10.3543 9.63467 10.3257 9.65874 10.2994C10.0347 9.88877 10.4793 9.78601 10.7529 9.78601C10.7679 9.78601 10.7829 9.78601 10.7979 9.78601C11.0562 9.78597 11.3133 9.78594 11.5393 9.79562Z" fill="url(#paint0_linear_283_3489)"/>
<path fill-rule="evenodd" clip-rule="evenodd" d="M2.35241 25.553C0.89458 23.0681 0.13253 20.2518 0.13253 17.3362C0.13253 8.29097 7.52108 0.935547 16.5663 0.935547C20.9729 0.935547 25.0813 2.65844 28.1958 5.73976C31.2771 8.85422 33 12.9627 33 17.3693C33 26.4145 25.6114 33.7699 16.5663 33.7699C13.8163 33.7699 11.0994 33.1072 8.71386 31.7819L0 34.0681L2.35241 25.553ZM5.00301 24.6253L5.33434 25.1223L3.94277 30.1584L9.11145 28.8L9.60843 29.0982C11.6958 30.3572 14.1145 31.0199 16.5663 31.0199C24.0874 31.0199 30.2169 24.8904 30.2169 17.3693C30.2169 13.7247 28.7922 10.2789 26.2078 7.69458C23.6566 5.14338 20.2108 3.71868 16.5663 3.71868C9.04518 3.71868 2.91566 9.81507 2.91566 17.3693C2.91566 19.9205 3.64458 22.4386 5.00301 24.6253Z" fill="url(#paint1_linear_283_3489)"/>
<defs>
<linearGradient id="paint0_linear_283_3489" x1="0" y1="17.5036" x2="33" y2="17.5036" gradientUnits="userSpaceOnUse">
<stop stop-color="#20B038"/>
<stop offset="1" stop-color="#60D66A"/>
</linearGradient>
<linearGradient id="paint1_linear_283_3489" x1="0" y1="17.5036" x2="33" y2="17.5036" gradientUnits="userSpaceOnUse">
<stop stop-color="#20B038"/>
<stop offset="1" stop-color="#60D66A"/>
</linearGradient>
</defs>
</svg>
