<svg viewBox="0 0 359 710" fill="none" xmlns="http://www.w3.org/2000/svg">
<rect x="3" y="3" width="353" height="704" rx="17" stroke="white" stroke-opacity="0.8" stroke-width="6"/>
<rect x="111" y="425" width="24" height="160" fill="#BADEFF"/>
<rect x="87" y="345" width="24" height="240" fill="#27B674"/>
<rect x="199" y="487.667" width="24" height="97.3333" fill="#5956E9"/>
<rect x="175" y="439" width="24" height="146" fill="#896BA7"/>
<rect x="287" y="376.333" width="24" height="208.667" fill="#5956E9"/>
<rect x="263" y="272" width="24" height="313" fill="#27B674"/>
<path d="M40.532 280.04V278.878H43.164V289H41.876V280.04H40.532ZM45.0024 283.834C45.0024 282.229 45.2637 280.978 45.7864 280.082C46.309 279.177 47.2237 278.724 48.5304 278.724C49.8277 278.724 50.7377 279.177 51.2604 280.082C51.783 280.978 52.0444 282.229 52.0444 283.834C52.0444 285.467 51.783 286.737 51.2604 287.642C50.7377 288.547 49.8277 289 48.5304 289C47.2237 289 46.309 288.547 45.7864 287.642C45.2637 286.737 45.0024 285.467 45.0024 283.834ZM50.7844 283.834C50.7844 283.022 50.7284 282.336 50.6164 281.776C50.5137 281.207 50.2944 280.749 49.9584 280.404C49.6317 280.059 49.1557 279.886 48.5304 279.886C47.8957 279.886 47.4104 280.059 47.0744 280.404C46.7477 280.749 46.5284 281.207 46.4164 281.776C46.3137 282.336 46.2624 283.022 46.2624 283.834C46.2624 284.674 46.3137 285.379 46.4164 285.948C46.5284 286.517 46.7477 286.975 47.0744 287.32C47.4104 287.665 47.8957 287.838 48.5304 287.838C49.1557 287.838 49.6317 287.665 49.9584 287.32C50.2944 286.975 50.5137 286.517 50.6164 285.948C50.7284 285.379 50.7844 284.674 50.7844 283.834ZM53.4434 283.834C53.4434 282.229 53.7047 280.978 54.2274 280.082C54.7501 279.177 55.6647 278.724 56.9714 278.724C58.2687 278.724 59.1787 279.177 59.7014 280.082C60.2241 280.978 60.4854 282.229 60.4854 283.834C60.4854 285.467 60.2241 286.737 59.7014 287.642C59.1787 288.547 58.2687 289 56.9714 289C55.6647 289 54.7501 288.547 54.2274 287.642C53.7047 286.737 53.4434 285.467 53.4434 283.834ZM59.2254 283.834C59.2254 283.022 59.1694 282.336 59.0574 281.776C58.9547 281.207 58.7354 280.749 58.3994 280.404C58.0727 280.059 57.5967 279.886 56.9714 279.886C56.3367 279.886 55.8514 280.059 55.5154 280.404C55.1887 280.749 54.9694 281.207 54.8574 281.776C54.7547 282.336 54.7034 283.022 54.7034 283.834C54.7034 284.674 54.7547 285.379 54.8574 285.948C54.9694 286.517 55.1887 286.975 55.5154 287.32C55.8514 287.665 56.3367 287.838 56.9714 287.838C57.5967 287.838 58.0727 287.665 58.3994 287.32C58.7354 286.975 58.9547 286.517 59.0574 285.948C59.1694 285.379 59.2254 284.674 59.2254 283.834Z" fill="#999FAE"/>
<path d="M42.716 357.736C42.1933 357.531 41.792 357.232 41.512 356.84C41.232 356.448 41.092 355.972 41.092 355.412C41.092 354.908 41.218 354.455 41.47 354.054C41.722 353.643 42.0953 353.321 42.59 353.088C43.094 352.845 43.7007 352.724 44.41 352.724C45.1193 352.724 45.7213 352.845 46.216 353.088C46.72 353.321 47.098 353.643 47.35 354.054C47.6113 354.455 47.742 354.908 47.742 355.412C47.742 355.953 47.5973 356.429 47.308 356.84C47.0187 357.241 46.622 357.54 46.118 357.736C46.6967 357.913 47.154 358.226 47.49 358.674C47.8353 359.113 48.008 359.645 48.008 360.27C48.008 360.877 47.8587 361.409 47.56 361.866C47.2613 362.314 46.8367 362.664 46.286 362.916C45.7447 363.159 45.1193 363.28 44.41 363.28C43.7007 363.28 43.0753 363.159 42.534 362.916C42.002 362.664 41.5867 362.314 41.288 361.866C40.9893 361.409 40.84 360.877 40.84 360.27C40.84 359.645 41.008 359.108 41.344 358.66C41.68 358.212 42.1373 357.904 42.716 357.736ZM46.51 355.566C46.51 354.997 46.3233 354.558 45.95 354.25C45.5767 353.942 45.0633 353.788 44.41 353.788C43.766 353.788 43.2573 353.942 42.884 354.25C42.5107 354.558 42.324 355.001 42.324 355.58C42.324 356.103 42.5153 356.523 42.898 356.84C43.29 357.157 43.794 357.316 44.41 357.316C45.0353 357.316 45.5393 357.157 45.922 356.84C46.314 356.513 46.51 356.089 46.51 355.566ZM44.41 358.296C43.7193 358.296 43.1547 358.459 42.716 358.786C42.2773 359.103 42.058 359.584 42.058 360.228C42.058 360.825 42.268 361.306 42.688 361.67C43.1173 362.034 43.6913 362.216 44.41 362.216C45.1287 362.216 45.698 362.034 46.118 361.67C46.538 361.306 46.748 360.825 46.748 360.228C46.748 359.603 46.5333 359.127 46.104 358.8C45.6747 358.464 45.11 358.296 44.41 358.296ZM49.35 357.834C49.35 356.229 49.6114 354.978 50.134 354.082C50.6567 353.177 51.5714 352.724 52.878 352.724C54.1754 352.724 55.0854 353.177 55.608 354.082C56.1307 354.978 56.392 356.229 56.392 357.834C56.392 359.467 56.1307 360.737 55.608 361.642C55.0854 362.547 54.1754 363 52.878 363C51.5714 363 50.6567 362.547 50.134 361.642C49.6114 360.737 49.35 359.467 49.35 357.834ZM55.132 357.834C55.132 357.022 55.076 356.336 54.964 355.776C54.8614 355.207 54.642 354.749 54.306 354.404C53.9794 354.059 53.5034 353.886 52.878 353.886C52.2434 353.886 51.758 354.059 51.422 354.404C51.0954 354.749 50.876 355.207 50.764 355.776C50.6614 356.336 50.61 357.022 50.61 357.834C50.61 358.674 50.6614 359.379 50.764 359.948C50.876 360.517 51.0954 360.975 51.422 361.32C51.758 361.665 52.2434 361.838 52.878 361.838C53.5034 361.838 53.9794 361.665 54.306 361.32C54.642 360.975 54.8614 360.517 54.964 359.948C55.076 359.379 55.132 358.674 55.132 357.834Z" fill="#999FAE"/>
<path d="M46.51 429.286C46.3047 428.25 45.6653 427.732 44.592 427.732C43.7613 427.732 43.1407 428.054 42.73 428.698C42.3193 429.333 42.1187 430.383 42.128 431.848C42.3427 431.363 42.6973 430.985 43.192 430.714C43.696 430.434 44.256 430.294 44.872 430.294C45.8333 430.294 46.5987 430.593 47.168 431.19C47.7467 431.787 48.036 432.613 48.036 433.668C48.036 434.303 47.91 434.872 47.658 435.376C47.4153 435.88 47.042 436.281 46.538 436.58C46.0433 436.879 45.4413 437.028 44.732 437.028C43.7707 437.028 43.0193 436.813 42.478 436.384C41.9367 435.955 41.5587 435.362 41.344 434.606C41.1293 433.85 41.022 432.917 41.022 431.806C41.022 428.381 42.2167 426.668 44.606 426.668C45.5207 426.668 46.2393 426.915 46.762 427.41C47.2847 427.905 47.5927 428.53 47.686 429.286H46.51ZM44.606 431.372C44.2047 431.372 43.8267 431.456 43.472 431.624C43.1173 431.783 42.828 432.03 42.604 432.366C42.3893 432.693 42.282 433.094 42.282 433.57C42.282 434.279 42.4873 434.858 42.898 435.306C43.3087 435.745 43.8967 435.964 44.662 435.964C45.3153 435.964 45.8333 435.763 46.216 435.362C46.608 434.951 46.804 434.401 46.804 433.71C46.804 432.982 46.6173 432.413 46.244 432.002C45.8707 431.582 45.3247 431.372 44.606 431.372ZM49.4047 431.834C49.4047 430.229 49.6661 428.978 50.1887 428.082C50.7114 427.177 51.6261 426.724 52.9327 426.724C54.2301 426.724 55.1401 427.177 55.6627 428.082C56.1854 428.978 56.4467 430.229 56.4467 431.834C56.4467 433.467 56.1854 434.737 55.6627 435.642C55.1401 436.547 54.2301 437 52.9327 437C51.6261 437 50.7114 436.547 50.1887 435.642C49.6661 434.737 49.4047 433.467 49.4047 431.834ZM55.1867 431.834C55.1867 431.022 55.1307 430.336 55.0187 429.776C54.9161 429.207 54.6967 428.749 54.3607 428.404C54.0341 428.059 53.5581 427.886 52.9327 427.886C52.2981 427.886 51.8127 428.059 51.4767 428.404C51.1501 428.749 50.9307 429.207 50.8187 429.776C50.7161 430.336 50.6647 431.022 50.6647 431.834C50.6647 432.674 50.7161 433.379 50.8187 433.948C50.9307 434.517 51.1501 434.975 51.4767 435.32C51.8127 435.665 52.2981 435.838 52.9327 435.838C53.5581 435.838 54.0341 435.665 54.3607 435.32C54.6967 434.975 54.9161 434.517 55.0187 433.948C55.1307 433.379 55.1867 432.674 55.1867 431.834Z" fill="#999FAE"/>
<path d="M40.56 508.746V507.78L45.474 500.976H47V507.64H48.4V508.746H47V511H45.74V508.746H40.56ZM45.796 502.306L42.03 507.64H45.796V502.306ZM49.3227 505.834C49.3227 504.229 49.584 502.978 50.1067 502.082C50.6294 501.177 51.544 500.724 52.8507 500.724C54.148 500.724 55.058 501.177 55.5807 502.082C56.1034 502.978 56.3647 504.229 56.3647 505.834C56.3647 507.467 56.1034 508.737 55.5807 509.642C55.058 510.547 54.148 511 52.8507 511C51.544 511 50.6294 510.547 50.1067 509.642C49.584 508.737 49.3227 507.467 49.3227 505.834ZM55.1047 505.834C55.1047 505.022 55.0487 504.336 54.9367 503.776C54.834 503.207 54.6147 502.749 54.2787 502.404C53.952 502.059 53.476 501.886 52.8507 501.886C52.216 501.886 51.7307 502.059 51.3947 502.404C51.068 502.749 50.8487 503.207 50.7367 503.776C50.634 504.336 50.5827 505.022 50.5827 505.834C50.5827 506.674 50.634 507.379 50.7367 507.948C50.8487 508.517 51.068 508.975 51.3947 509.32C51.7307 509.665 52.216 509.838 52.8507 509.838C53.476 509.838 53.952 509.665 54.2787 509.32C54.6147 508.975 54.834 508.517 54.9367 507.948C55.0487 507.379 55.1047 506.674 55.1047 505.834Z" fill="#999FAE"/>
<path d="M40.714 583.978C41.8993 583.026 42.828 582.247 43.5 581.64C44.172 581.024 44.7367 580.385 45.194 579.722C45.6607 579.05 45.894 578.392 45.894 577.748C45.894 577.141 45.7447 576.665 45.446 576.32C45.1567 575.965 44.6853 575.788 44.032 575.788C43.3973 575.788 42.9027 575.989 42.548 576.39C42.2027 576.782 42.016 577.309 41.988 577.972H40.756C40.7933 576.927 41.1107 576.119 41.708 575.55C42.3053 574.981 43.0753 574.696 44.018 574.696C44.9793 574.696 45.74 574.962 46.3 575.494C46.8693 576.026 47.154 576.759 47.154 577.692C47.154 578.467 46.9207 579.223 46.454 579.96C45.9967 580.688 45.474 581.332 44.886 581.892C44.298 582.443 43.5467 583.087 42.632 583.824H47.448V584.888H40.714V583.978ZM48.5707 579.834C48.5707 578.229 48.8321 576.978 49.3547 576.082C49.8774 575.177 50.7921 574.724 52.0987 574.724C53.3961 574.724 54.3061 575.177 54.8287 576.082C55.3514 576.978 55.6127 578.229 55.6127 579.834C55.6127 581.467 55.3514 582.737 54.8287 583.642C54.3061 584.547 53.3961 585 52.0987 585C50.7921 585 49.8774 584.547 49.3547 583.642C48.8321 582.737 48.5707 581.467 48.5707 579.834ZM54.3527 579.834C54.3527 579.022 54.2967 578.336 54.1847 577.776C54.0821 577.207 53.8627 576.749 53.5267 576.404C53.2001 576.059 52.7241 575.886 52.0987 575.886C51.4641 575.886 50.9787 576.059 50.6427 576.404C50.3161 576.749 50.0967 577.207 49.9847 577.776C49.8821 578.336 49.8307 579.022 49.8307 579.834C49.8307 580.674 49.8821 581.379 49.9847 581.948C50.0967 582.517 50.3161 582.975 50.6427 583.32C50.9787 583.665 51.4641 583.838 52.0987 583.838C52.7241 583.838 53.2001 583.665 53.5267 583.32C53.8627 582.975 54.0821 582.517 54.1847 581.948C54.2967 581.379 54.3527 580.674 54.3527 579.834Z" fill="#999FAE"/>
<path d="M170.453 157.163C172.314 157.163 173.823 155.654 173.823 153.793C173.823 151.932 172.314 150.424 170.453 150.424C168.593 150.424 167.084 151.932 167.084 153.793C167.084 155.654 168.593 157.163 170.453 157.163Z" stroke="#27B674" stroke-width="2.24631" stroke-miterlimit="10" stroke-linecap="round" stroke-linejoin="round"/>
<path d="M172.836 151.411L180.562 143.685" stroke="#27B674" stroke-width="2.24631" stroke-miterlimit="10" stroke-linecap="round" stroke-linejoin="round"/>
<path d="M170.453 131.33V133.576" stroke="#27B674" stroke-width="2.24631" stroke-miterlimit="10" stroke-linecap="round" stroke-linejoin="round"/>
<path d="M186.336 137.91L184.748 139.498" stroke="#27B674" stroke-width="2.24631" stroke-miterlimit="10" stroke-linecap="round" stroke-linejoin="round"/>
<path d="M192.916 153.793H190.67" stroke="#27B674" stroke-width="2.24631" stroke-miterlimit="10" stroke-linecap="round" stroke-linejoin="round"/>
<path d="M199.655 153.793C199.655 137.665 186.58 124.591 170.453 124.591" stroke="#27B674" stroke-width="2.24631" stroke-miterlimit="10" stroke-linecap="round" stroke-linejoin="round"/>
<circle cx="179.999" cy="141.999" r="88.5759" stroke="url(#paint0_linear_231_3790)" stroke-width="12.3547"/>
<path d="M180 28C197.965 28 215.675 32.2456 231.687 40.3905C247.699 48.5355 261.559 60.3493 272.138 74.8687C282.717 89.3881 289.714 106.202 292.56 123.94C295.406 141.677 294.02 159.837 288.515 176.937L246.759 163.493C250.146 152.973 250.999 141.801 249.248 130.889C247.498 119.977 243.192 109.633 236.684 100.7C230.176 91.7675 221.649 84.4996 211.798 79.4887C201.948 74.4778 191.052 71.8659 180 71.8659V28Z" fill="url(#paint1_linear_231_3790)"/>
<defs>
<linearGradient id="paint0_linear_231_3790" x1="179.999" y1="47.2461" x2="263.649" y2="170.869" gradientUnits="userSpaceOnUse">
<stop stop-color="#5956E9"/>
<stop offset="1" stop-color="#9991FF"/>
</linearGradient>
<linearGradient id="paint1_linear_231_3790" x1="180" y1="28" x2="180" y2="256" gradientUnits="userSpaceOnUse">
<stop stop-color="#27B674"/>
<stop offset="1" stop-color="white"/>
</linearGradient>
</defs>
</svg>
